# xmcd
#
# Track frame offsets:
#	182
#	16505
#	50572
#	70302
#
# Disc length: 1193 seconds
#
# Revision: 1
# Processed by: cddbd v1.5.1PL0 Copyright (c) Steve Scherf et al.
# Submitted via: audiograbber 1.83.01
#
DISCID=2a04a704
DTITLE=Everyday People -  I Guess it doesn't matter Maxi CD
DYEAR=1990
DGENRE=Pop
TTITLE0=I Guess it doesn't matter (7")
TTITLE1=I Guess it doesn't matter (the sheffield club)
TTITLE2=Inside your love
TTITLE3=I Guess it doesn't matter (L.P. Version)
EXTD=
EXTT0=
EXTT1=
EXTT2=
EXTT3=
PLAYORDER=
